<svg id="Layer_1" data-name="Layer 1" xmlns="http://www.w3.org/2000/svg" width="1.5in" height="1.5in" viewBox="0 0 108 108"><title>favicon</title><path d="M94.6,42.2v23c-.1,29.7-19.1,40-38.7,39.6H52c-19.6.4-38.6-9.9-38.7-39.6v-23H42.7V64.9c0,6.4,5,10.3,11.3,10.3s11.3-3.9,11.3-10.3V42.2Z" fill="#ffc700"/><path d="M40,21.4a7,7,0,0,1-7,7H19.9V14.5H33.1A7,7,0,0,1,40,21.4Z" fill="#ffc700"/><rect x="65.3" y="2.7" width="29.3" height="29.31" rx="14.7" ry="14.7" transform="translate(97.4 -62.6) rotate(90)" fill="#ffc700"/></svg>