<svg xmlns="http://www.w3.org/2000/svg"><symbol id="behance" viewBox="0 0 128 128"><path fill="#010101" d="M64 0a64 64 0 1 0 64 64A64 64 0 0 0 64 0zm0 118a54 54 0 1 1 54-54 54 54 0 0 1-54 54z"/><path fill="#010101" d="M60.6 48.2a10 10 0 0 1 1.8 5.9 8.8 8.8 0 0 1-1.8 5.8 9.3 9.3 0 0 1-2.9 2.2 8.7 8.7 0 0 1 4.5 3.4 10.5 10.5 0 0 1 1.5 5.7 11.4 11.4 0 0 1-1.7 6.2 10.8 10.8 0 0 1-2.7 3.1 10.7 10.7 0 0 1-4.4 2 27.1 27.1 0 0 1-5.4.5H32V44h18.6q7.1.1 10 4.2zm-20.9 2.6v8.6h9.4a7.8 7.8 0 0 0 4.1-1 3.7 3.7 0 0 0 1.5-3.4 3.5 3.5 0 0 0-2.1-3.6 14.4 14.4 0 0 0-4.6-.6zm0 15.1v10.3h9.4a9.1 9.1 0 0 0 3.9-.7q2.5-1.3 2.5-4.9a4.2 4.2 0 0 0-2.5-4.1 9.5 9.5 0 0 0-3.9-.6zm48.8-11.2a11.7 11.7 0 0 1 5 4.3 14.6 14.6 0 0 1 2.3 6 38.1 38.1 0 0 1 .2 5.7H75.2c.1 2.9 1.1 4.9 3 6.1a7.5 7.5 0 0 0 4.1 1.1 5.8 5.8 0 0 0 5.7-3.3h7.6a9.5 9.5 0 0 1-2.8 5.2c-2.5 2.8-6.1 4.2-10.7 4.2a15.4 15.4 0 0 1-10-3.6q-4.3-3.6-4.3-11.6t3.9-11.5a13.7 13.7 0 0 1 10.2-4 16.2 16.2 0 0 1 6.6 1.4zm-11.1 6.6a7.9 7.9 0 0 0-2 4.5h12.9a6.3 6.3 0 0 0-2-4.6 6.5 6.5 0 0 0-4.4-1.6 5.9 5.9 0 0 0-4.5 1.7zM72 48h20v4H72z"/></symbol><symbol id="email" viewBox="0 0 128 128"><path fill="#fff" d="M64.1 93.2h29c3.8 0 5-1.1 5-5V45.9c0-3.9-1.1-5-5-5H34.6c-3.7 0-4.8 1.1-4.8 4.7v42.9c0 3.6 1.1 4.7 4.7 4.7z"/><path d="M64.1 93.2H34.6c-3.7 0-4.7-1.1-4.7-4.7V45.6c0-3.6 1.1-4.7 4.8-4.7h58.5c3.8 0 5 1.2 5 5v42.3c0 3.8-1.2 5-5 5zm26.7-37.4l-2.4 1.7L66.9 74c-3.1 2.4-3.9 2.4-7 0L38.5 57.5l-1.5-.9V86h53.8zm-27.4 12L89 48.2H38z"/><path fill="#fff" d="M90.8 55.8V86H37.1V56.6l1.5.9L60 74.1c3 2.3 3.9 2.3 7 0l21.4-16.6z"/><path fill="#fff" d="M63.4 67.8L38 48.2h51z"/><path fill="#010101" d="M64 0a64 64 0 1 0 64 64A64 64 0 0 0 64 0zm0 118a54 54 0 1 1 54-54 54 54 0 0 1-54 54z"/></symbol><symbol id="linkedin" viewBox="0 0 128 128"><path fill="#231f20" d="M68.2 88.6V68.1a7.1 7.1 0 0 1 1.9-5.1 6.3 6.3 0 0 1 6.4-1.9 5.3 5.3 0 0 1 4 4.4 20.1 20.1 0 0 1 .4 4.3v18.7H93c0-.4.1-.8.1-1.1V68a33.1 33.1 0 0 0-.4-4.6c-1-6.2-4.7-10.4-10.4-11.6s-10.2.1-13.6 4.9l-.5.5v-4.8h-12v36.2zm-18.8 0V52.4H37.5v36.2zm-6-41.2c3.1 0 5.5-1.5 6.4-4a6.2 6.2 0 0 0-3.7-8.1c-3.8-1.4-8 .3-9.2 3.8s1.8 8.3 6.5 8.3z"/><path fill="#231f20" d="M68.2 88.6h-12V52.4h12v4.8l.5-.5c3.4-4.8 8.2-6 13.6-4.9s9.4 5.3 10.3 11.6A33.1 33.1 0 0 1 93 68v19.4c0 .3 0 .7-.1 1.1H81V69.9a20.1 20.1 0 0 0-.4-4.3 5.3 5.3 0 0 0-4-4.4 6.3 6.3 0 0 0-6.4 1.9 7.1 7.1 0 0 0-1.9 5.1v19.1c-.1.4-.1.8-.1 1.3zm-18.8 0H37.5V52.4h11.9zm-6-41.2c-4.8 0-7.8-4-6.4-8.3s5.3-5.1 9.2-3.8a6.2 6.2 0 0 1 3.7 8.1c-1 2.5-3.3 4-6.5 4z"/><path fill="#010101" d="M64 0a64 64 0 1 0 64 64A64 64 0 0 0 64 0zm0 118a54 54 0 1 1 54-54 54 54 0 0 1-54 54z"/></symbol></svg>