<svg id="Layer_1" data-name="Layer 1" xmlns="http://www.w3.org/2000/svg" width="4in" height="1.6in" viewBox="0 0 288.3 113.7"><title>wordmark-first</title><path d="M252.7,46V66.4c0,9.2-11.4,12.6-21.2,5.4l-8.8-8.1c9.8-5,16.3-14.1,16.3-24.6,0-15.8-15.1-28.7-33.7-28.7H168.6V75.6H109.7V66.7h25.8V46H109.7v-9h43.1V10.6H7.9V36.9H40.8v65.2H67.2V36.9H83.4v65.2H194.9V74l18.7,17.2c18.4,16.1,65.2,19.7,65.4-24.6V46Zm-41.5-1.7a6.2,6.2,0,0,1-4.4,1.8H194.9V33.6h11.8a6.2,6.2,0,0,1,4.4,10.7Z" fill="#231f20"/><rect x="250.7" y="8.5" width="30.3" height="30.3" rx="15.1" ry="15.1" transform="translate(289.5 -242.2) rotate(90)" fill="#231f20"/></svg>