<svg id="Layer_1" data-name="Layer 1" xmlns="http://www.w3.org/2000/svg" width="3.9in" height="1.8in" viewBox="0 0 283.8 131.3"><title>wordmark</title><path d="M38.5,105h6.4c8,0,11.5,4.6,11.5,10.3s-3.5,10.3-11.5,10.3H38.5Zm6.4,18.2c6.7,0,8.6-3.8,8.6-7.9s-1.9-7.9-8.6-7.9H41.3v15.8Z" fill="#231f20"/><path d="M82.6,105h2.8v20.6H82.6Z" fill="#231f20"/><path d="M112.7,105h6.8c4.2,0,6,2.4,6,5.4a5.5,5.5,0,0,1-2.2,4.1,5.6,5.6,0,0,1,3.3,5.1c0,3.3-2,6.1-6.7,6.1h-7.2Zm6.8,8.5c2.6,0,3.4-1.5,3.4-3.1s-.8-3.1-3.4-3.1h-4.1v6.2Zm.3,9.8c3.1,0,4-1.9,4-3.7s-.9-3.7-4-3.7h-4.4v7.5Z" fill="#231f20"/><path d="M152.6,105h6.8c4.2,0,6,2.4,6,5.4a5.5,5.5,0,0,1-2.2,4.1,5.6,5.6,0,0,1,3.3,5.1c0,3.3-2,6.1-6.7,6.1h-7.2Zm6.8,8.5c2.6,0,3.4-1.5,3.4-3.1s-.8-3.1-3.4-3.1h-4.1v6.2Zm.3,9.8c3.1,0,4-1.9,4-3.7s-.9-3.7-4-3.7h-4.4v7.5Z" fill="#231f20"/><path d="M192.5,105h2.8v20.6h-2.7Z" fill="#231f20"/><path d="M227.9,107.3h-7.3V105H238v2.3h-7.3v18.3h-2.7Z" fill="#231f20"/><path d="M261.6,123.6l.6-2.5a8.4,8.4,0,0,0,6.3,2.8c2.4,0,4.3-1.4,4.3-3.6s-1-3.3-4.9-4.3-5.7-3.1-5.7-6,2.4-5.4,6.6-5.4a9.3,9.3,0,0,1,5.6,1.9l-.6,2.2a9.2,9.2,0,0,0-5-1.8c-2.6,0-4.1,1.2-4.1,3.1s.9,2.7,4.2,3.6,6.5,3.1,6.5,6.5-3.4,6.1-6.9,6.1A9.7,9.7,0,0,1,261.6,123.6Z" fill="#231f20"/><path d="M249.9,41.6V62.1c0,9.2-11.4,12.6-21.2,5.4l-8.8-8.1c9.8-5,16.3-14.1,16.3-24.6,0-15.8-15.1-28.7-33.7-28.7H165.8V71.3H106.9V62.4h25.8V41.6H106.9v-9H150V6.3H5.1V32.6H38V97.8H64.4V32.6H80.6V97.8H192.1v-28l18.7,17.2c18.4,16.1,65.2,19.7,65.4-24.6V41.6Zm-41.5-1.7a6.2,6.2,0,0,1-4.4,1.8H192.1V29.2H204a6.2,6.2,0,0,1,4.4,10.7Z" fill="#231f20"/><rect x="247.9" y="4.2" width="30.3" height="30.3" rx="15.1" ry="15.1" transform="translate(282.4 -243.8) rotate(90)" fill="#231f20"/></svg>