<svg id="Layer_1" data-name="Layer 1" xmlns="http://www.w3.org/2000/svg" width="4.2in" height="1.6in" viewBox="0 0 302.9 118.8"><title>wordmark</title><path d="M252.7,51V71.5c0,9.2-11.4,12.6-21.2,5.4l-8.8-8.1c9.8-5,16.3-14.1,16.3-24.6,0-15.8-15.1-28.7-33.7-28.7H168.6V80.7H109.7V71.8h25.8V51H109.7V42h43.1V15.7H7.9V42H40.8v65.2H67.2V42H83.4v65.2H194.9V79l18.7,17.2c18.4,16.1,65.2,19.7,65.4-24.6V51Zm-41.5-1.7a6.2,6.2,0,0,1-4.4,1.8H194.9V38.6h11.8a6.2,6.2,0,0,1,4.4,10.7Z" fill="#231f20"/><rect x="252.7" y="15.5" width="26.3" height="26.34" transform="translate(294.6 -237.1) rotate(90)" fill="#231f20"/></svg>