<svg id="Layer_1" data-name="Layer 1" xmlns="http://www.w3.org/2000/svg" width="3.8in" height="1.7in" viewBox="0 0 271.1 119.4"><title>wordmark</title><text transform="translate(31.2 119.4)" font-size="34.37" fill="#231f20" font-family="MrEavesXLModOT-Reg, Mr Eaves XL Mod OT" letter-spacing="0.67em">DIBBI<tspan x="184" y="0" letter-spacing="0.65em">T</tspan><tspan x="224.1" y="0" letter-spacing="0.67em">S</tspan></text><path d="M244.8,35.4V55.8c0,9.2-11.4,12.6-21.2,5.4l-8.8-8.1c9.8-5,16.3-14.1,16.3-24.6C231,12.7,216-.1,197.4-.1H160.7V65H101.8V56.1h25.8V35.4H101.8v-9h43.1V0H0V26.3H32.9V91.5H59.3V26.3H75.5V91.5H187v-28l18.7,17.2C224.1,96.7,271,100.3,271.1,56V35.4Zm-41.5-1.7a6.2,6.2,0,0,1-4.4,1.8H187V23h11.8a6.2,6.2,0,0,1,4.4,10.7Z" fill="#231f20"/><rect x="244.8" y="-0.1" width="26.3" height="26.34" transform="translate(271 -244.9) rotate(90)" fill="#231f20"/></svg>