<svg id="Layer_1" data-name="Layer 1" xmlns="http://www.w3.org/2000/svg" width="7.9in" height="1.6in" viewBox="0 0 570 118.1"><title>wordmark</title><path d="M25.5,48.2h9l.2-8.3h5.6l-.2,8.3H65.8V53H40l-.3,18.7c-.2,8.1,1.7,9.7,11.9,9.7,5.1,0,7.7-.8,8.9-2.8s.9-2.4.9-7.9V69.4h5.1v1.5c0,7.5-.3,9.4-1.9,11.4s-6.2,3.9-13.4,3.9S39.7,85.4,37.1,83,34,78.8,34,73.5V71.7L34.4,53H25.5Z" fill="#231f20"/><path d="M83.4,68c0,6.4.5,8.2,2.4,10.3s5.3,3.2,15.8,3.2c13.3,0,16.6-1.3,17.4-7h5.8c-.2,3.4-1.2,5.6-3.2,7.5s-8.5,4.3-20.3,4.3-16.1-1-19.2-3.7S77.5,75,77.5,67s1.3-12.7,4.6-15.6,8.4-3.7,19.1-3.7c12.6,0,17.7,1.3,20.7,5.5s3,6.7,2.9,14.8Zm35.5-4.6c-.1-3-.3-4.5-1.1-6.1-2.1-4-5.2-4.9-16.6-4.9s-14.6.9-16.7,4.9c-.8,1.5-1,2.9-1.1,6.1Z" fill="#231f20"/><path d="M137.3,48.2h5.6v7.4c2.1-6.3,5.5-7.9,17-7.9s16.7,3.2,16.7,14.4v2.2H171v-2c0-8.1-2.3-9.9-12.6-9.9s-15.5,3.1-15.5,11.2v22h-5.6Z" fill="#231f20"/><path d="M185.4,32.4H191v6.9h-5.6Zm0,15.8H191V85.6h-5.6Z" fill="#231f20"/><path d="M244.8,85.6v-7c-2.5,6.2-6.2,7.7-18.2,7.7-10.4,0-16-1.3-19.1-4.3s-3.6-6.6-3.6-14.1c0-10.5,1.5-14.7,6-17.3s8.5-2.8,16.9-2.8c6,0,10.8.8,13.2,2.1a10.7,10.7,0,0,1,4.5,4.7V32.8h10.4V85.6ZM216.6,58.3c-1.5,1.7-2.1,4.3-2.1,8.9s.7,7.5,2.4,9a10.4,10.4,0,0,0,5.3,1.8l9,.3c6.6,0,9.9-.7,11.5-2.5s2.1-4.6,2.1-8.2c0-10.1-2-11.9-13.6-11.9C221.7,55.8,218.3,56.4,216.6,58.3Z"/><path d="M266.5,32.8H277v8.7H266.5Zm0,15.8H277V85.6H266.5Z"/><path d="M289.8,32.8h10.4V54.9c2.5-5.3,6.7-7,17.3-7,19,0,23.4,3.5,23.4,19,0,10.4-1.4,14.4-5.9,16.9s-8.4,2.6-17.2,2.6c-11.6,0-15.1-1.5-17.6-7.3v6.6H289.8Zm10.6,34.3c0,9.6,2.1,11.3,13.8,11.3a60.1,60.1,0,0,0,10.7-.7c4.1-1.1,5.5-3.7,5.5-10.3,0-9.6-2.1-11.5-13.1-11.5C302.6,55.8,300.4,57.3,300.4,67.1Z"/><path d="M350.3,32.8h10.4V54.9c2.5-5.3,6.7-7,17.3-7,19,0,23.4,3.5,23.4,19,0,10.4-1.4,14.4-5.9,16.9s-8.4,2.6-17.2,2.6c-11.6,0-15.1-1.5-17.6-7.3v6.6H350.3Zm10.6,34.3c0,9.6,2.1,11.3,13.8,11.3a60.1,60.1,0,0,0,10.7-.7c4.1-1.1,5.5-3.7,5.5-10.3,0-9.6-2.1-11.5-13.1-11.5C363.1,55.8,360.9,57.3,360.9,67.1Z"/><path d="M410.9,32.8h10.4v8.7H410.9Zm0,15.8h10.4V85.6H410.9Z"/><path d="M474.4,72c0,6.8-.6,9.2-2.9,11.2s-6.4,3.1-13.9,3.1-12.5-1-15.3-3.9-2.8-5.8-2.6-9.3V56h-7.7V48.6h7.8V39.9h10.6v8.6h23.6V56H450.5l-.2,14.8c-.1,6.6,1.3,7.8,8.6,7.8,3.1,0,5-.6,6.1-1.6s1.1-2.1,1.1-5.9V69.7h8.3Z"/><path d="M522.9,58.6c0-3.1-2.5-3.8-13.1-3.8s-12.7,1-12.7,4.4,1.7,3.7,12.2,3.7H515c9.6,0,13.4.5,16.4,2.2s4,4.3,4,8.9c0,6.8-2.3,9.9-8.5,11.3-3.2.7-8.9,1-18.7,1-12.7,0-17.2-.9-19.9-4s-2.5-4.2-2.5-8.1v-.4h10.9v.4c.2,4.7,1.7,5.1,15.1,5.2,9-.2,9-.2,11.1-1.1a3.7,3.7,0,0,0,1.8-3.4c0-3.6-2.1-4.5-11.5-4.3-3.6.1-12.5-.1-14.5-.2-9.2-.6-12.4-3.4-12.4-10.6s2.3-9.5,8.2-10.8c3.3-.7,8.5-1.1,16-1.1,11.5,0,15.9.6,19.2,2.4s4,4.3,4,8.5v.2H522.9Z"/></svg>