<svg id="Layer_1" data-name="Layer 1" xmlns="http://www.w3.org/2000/svg" width="3.9in" height="1.8in" viewBox="0 0 283.8 131.3"><title>wordmark</title><text transform="translate(36.4 125.7)" font-size="34.37" fill="#231f20" font-family="MrEavesXLModOT-Reg, Mr Eaves XL Mod OT" letter-spacing="0.67em">DIBBI<tspan x="184" y="0" letter-spacing="0.65em">T</tspan><tspan x="224.1" y="0" letter-spacing="0.67em">S</tspan></text><path d="M249.9,41.6V62.1c0,9.2-11.4,12.6-21.2,5.4l-8.8-8.1c9.8-5,16.3-14.1,16.3-24.6,0-15.8-15.1-28.7-33.7-28.7H165.8V71.3H106.9V62.4h25.8V41.6H106.9v-9H150V6.3H5.1V32.6H38V97.8H64.4V32.6H80.6V97.8H192.1v-28l18.7,17.2c18.4,16.1,65.2,19.7,65.4-24.6V41.6Zm-41.5-1.7a6.2,6.2,0,0,1-4.4,1.8H192.1V29.2H204a6.2,6.2,0,0,1,4.4,10.7Z" fill="#231f20"/><rect x="247.9" y="4.2" width="30.3" height="30.3" rx="15.1" ry="15.1" transform="translate(282.4 -243.8) rotate(90)" fill="#231f20"/></svg>